Coordinates
version=1
nRows=38
nColumns=38
inDegrees=no

Units are S.I. units (second, meters, Newtons, ...)
If the header above contains a line with 'inDegrees', this indicates whether rotational values are in degrees (yes) or radians (no).

endheader
time	pelvis_tilt	pelvis_list	pelvis_rotation	pelvis_tx	pelvis_ty	pelvis_tz	hip_flexion_r	hip_adduction_r	hip_rotation_r	knee_angle_r	ankle_angle_r	subtalar_angle_r	mtp_angle_r	hip_flexion_l	hip_adduction_l	hip_rotation_l	knee_angle_l	ankle_angle_l	subtalar_angle_l	mtp_angle_l	lumbar_extension	lumbar_bending	lumbar_rotation	arm_flex_r	arm_add_r	arm_rot_r	elbow_flex_r	pro_sup_r	wrist_flex_r	wrist_dev_r	arm_flex_l	arm_add_l	arm_rot_l	elbow_flex_l	pro_sup_l	wrist_flex_l	wrist_dev_l
10	0.248522	1.3453	1.38172	0.695147	0.535162	0.780417	1.00683	-0.131544	-0.0116069	1.339	-0.0744704	0	0	0.93419	-0.319523	-0.172231	1.26116	-0.0956499	0	0	-0.554859	0.200774	0.0551976	0.393261	-0.457948	0.224614	0.602055	1.08924	0	0	0.146604	-0.318884	0.0995488	0.84952	1.5708	0	0
10.01	0.237122	1.33683	1.39296	0.694718	0.534188	0.77759	1.02302	-0.132977	-0.00800719	1.34569	-0.0739494	0	0	0.950626	-0.31654	-0.167143	1.26975	-0.0936245	0	0	-0.551693	0.201653	0.0565066	0.395673	-0.45903	0.21912	0.603759	1.09272	0	0	0.147731	-0.317029	0.10108	0.848869	1.5708	0	0
10.02	0.230069	1.33136	1.39981	0.69431	0.533448	0.775148	1.03539	-0.134359	-0.00562001	1.35281	-0.0741295	0	0	0.962955	-0.314727	-0.163338	1.2779	-0.0917487	0	0	-0.551836	0.202747	0.0579877	0.398757	-0.460284	0.214964	0.60513	1.09534	0	0	0.149208	-0.315225	0.102588	0.848417	1.5708	0	0
10.03	0.22327	1.32759	1.40561	0.693844	0.532883	0.772999	1.04577	-0.1368	-0.0053391	1.36613	-0.0709341	0	0	0.972361	-0.313357	-0.160967	1.28541	-0.0897109	0	0	-0.554167	0.203287	0.0597978	0.402073	-0.461477	0.210678	0.606614	1.09713	0	0	0.150685	-0.313304	0.103106	0.848294	1.5708	0	0
10.04	0.218289	1.32762	1.41002	0.693025	0.532703	0.771482	1.05054	-0.14281	-0.0104002	1.38761	-0.0591598	0	0	0.975836	-0.311461	-0.160391	1.29166	-0.0868595	0	0	-0.56117	0.203952	0.0613036	0.405473	-0.463368	0.206275	0.608905	1.09932	0	0	0.152318	-0.310803	0.102295	0.848633	1.5708	0	0
10.05	0.208562	1.32819	1.41513	0.693427	0.532578	0.769731	1.05634	-0.141665	-0.00716373	1.4015	-0.0516456	0	0	0.977828	-0.315469	-0.164788	1.29896	-0.0845255	0	0	-0.567774	0.200086	0.0652221	0.408389	-0.463037	0.202413	0.61021	1.10123	0	0	0.153618	-0.310982	0.102502	0.84961	1.5708	0	0
10.06	0.20502	1.32752	1.41645	0.693213	0.532189	0.76785	1.06258	-0.141904	-0.00523589	1.40918	-0.048507	0	0	0.98285	-0.316651	-0.164231	1.30655	-0.0823634	0	0	-0.572614	0.199663	0.0675028	0.411834	-0.463918	0.200061	0.612197	1.10304	0	0	0.154753	-0.309977	0.10224	0.850466	1.5708	0	0
10.07	0.210168	1.32537	1.41156	0.692406	0.531679	0.765941	1.06867	-0.143852	-0.0067729	1.41425	-0.0470379	0	0	0.990842	-0.315746	-0.158841	1.31425	-0.0798174	0	0	-0.576086	0.203224	0.068626	0.4153	-0.465683	0.197918	0.615087	1.10435	0	0	0.155445	-0.307522	0.100774	0.851414	1.5708	0	0
10.08	0.21104	1.32273	1.4092	0.692301	0.53143	0.763844	1.07565	-0.142449	-0.00402918	1.41395	-0.0484815	0	0	0.998378	-0.317791	-0.156426	1.32218	-0.0770185	0	0	-0.578126	0.204052	0.0705104	0.417496	-0.465833	0.195634	0.617367	1.10576	0	0	0.155624	-0.306583	0.0992922	0.852114	1.5708	0	0
10.09	0.202443	1.31933	1.4142	0.692836	0.531404	0.761498	1.08506	-0.137816	0.00544037	1.40595	-0.0569059	0	0	1.0055	-0.322016	-0.158754	1.33031	-0.0735024	0	0	-0.578191	0.200918	0.0728734	0.41786	-0.463674	0.190919	0.61891	1.10707	0	0	0.155529	-0.307383	0.0986519	0.85259	1.5708	0	0
10.1	0.200494	1.31523	1.41416	0.692795	0.531204	0.759403	1.09468	-0.135342	0.00917435	1.40466	-0.0647833	0	0	1.01395	-0.324343	-0.157773	1.3375	-0.0705253	0	0	-0.578454	0.200783	0.0749418	0.418854	-0.462573	0.18671	0.620845	1.10751	0	0	0.156149	-0.306891	0.0978629	0.852594	1.5708	0	0
10.11	0.200874	1.31029	1.41171	0.692693	0.530872	0.757385	1.10536	-0.132777	0.0104675	1.40866	-0.0699536	0	0	1.02352	-0.326725	-0.155495	1.34415	-0.068132	0	0	-0.578359	0.201387	0.0774278	0.420042	-0.461868	0.182875	0.623269	1.10769	0	0	0.157061	-0.30594	0.0969074	0.852592	1.5708	0	0
10.12	0.202497	1.30643	1.40862	0.692507	0.530571	0.755583	1.11244	-0.132394	0.00964021	1.41351	-0.0706909	0	0	1.03175	-0.32859	-0.15291	1.3503	-0.0664615	0	0	-0.579465	0.2025	0.079548	0.42151	-0.461434	0.179695	0.625722	1.10788	0	0	0.158361	-0.305208	0.0960752	0.852723	1.5708	0	0
10.13	0.202526	1.30225	1.40782	0.692192	0.530272	0.753772	1.11977	-0.133161	0.00935895	1.41848	-0.0699574	0	0	1.04049	-0.328812	-0.149642	1.35637	-0.0644452	0	0	-0.579964	0.203765	0.0810352	0.422354	-0.461069	0.175678	0.62857	1.10871	0	0	0.159745	-0.304382	0.0954127	0.852824	1.5708	0	0
10.14	0.196931	1.30101	1.41549	0.691735	0.530257	0.751885	1.12799	-0.141261	0.0127223	1.40515	-0.0866383	0	0	1.0462	-0.325637	-0.147327	1.36325	-0.0614446	0	0	-0.58105	0.204683	0.0792247	0.42172	-0.459595	0.17067	0.631131	1.10987	0	0	0.161424	-0.304712	0.0967839	0.852647	1.5708	0	0
10.15	0.197649	1.29359	1.41186	0.691562	0.529622	0.750328	1.13695	-0.133701	0.0128303	1.42771	-0.074717	0	0	1.05789	-0.327076	-0.14385	1.36769	-0.0594185	0	0	-0.580025	0.205578	0.0834584	0.422516	-0.459295	0.165785	0.634428	1.11134	0	0	0.163977	-0.303109	0.0964245	0.852517	1.5708	0	0
10.16	0.190149	1.29327	1.42199	0.691037	0.529622	0.748777	1.14351	-0.142753	0.0158299	1.41407	-0.0879907	0	0	1.06184	-0.323529	-0.144052	1.37346	-0.0578415	0	0	-0.581805	0.206016	0.0810708	0.421894	-0.457887	0.161184	0.636961	1.11255	0	0	0.166544	-0.303884	0.0985265	0.852391	1.5708	0	0
10.17	0.186627	1.28537	1.42413	0.690486	0.528943	0.747376	1.15253	-0.139578	0.014952	1.43634	-0.0741412	0	0	1.07362	-0.322935	-0.143208	1.37658	-0.0575314	0	0	-0.579474	0.207074	0.0825419	0.423462	-0.457585	0.157764	0.639726	1.11524	0	0	0.168654	-0.302468	0.0972522	0.852484	1.5708	0	0
10.18	0.1813	1.28102	1.42964	0.690013	0.528607	0.746007	1.16067	-0.140922	0.0166995	1.43903	-0.071463	0	0	1.08121	-0.320796	-0.142373	1.38025	-0.0569271	0	0	-0.578822	0.207728	0.0818982	0.424594	-0.456263	0.15469	0.641408	1.11678	0	0	0.170508	-0.302407	0.0970204	0.852724	1.5708	0	0
10.19	0.176571	1.2772	1.43326	0.68982	0.528299	0.744768	1.1681	-0.140908	0.0187927	1.44207	-0.0709132	0	0	1.08772	-0.319842	-0.141295	1.3836	-0.0560106	0	0	-0.57897	0.207634	0.0824635	0.425926	-0.454522	0.151479	0.642414	1.1178	0	0	0.172355	-0.302575	0.0966855	0.853708	1.5708	0	0
10.2	0.172493	1.27343	1.43538	0.689745	0.52796	0.743605	1.17494	-0.140439	0.0207947	1.44509	-0.0705897	0	0	1.09393	-0.319945	-0.140498	1.38669	-0.0550419	0	0	-0.5795	0.207214	0.0839951	0.427458	-0.453061	0.148536	0.643116	1.11961	0	0	0.174306	-0.302908	0.0963659	0.855123	1.5708	0	0
10.21	0.170847	1.27078	1.43501	0.689719	0.527664	0.742594	1.18055	-0.139188	0.021974	1.44784	-0.0708394	0	0	1.09882	-0.321107	-0.139831	1.38983	-0.0542503	0	0	-0.581433	0.207287	0.0861604	0.429243	-0.451644	0.14539	0.643371	1.12082	0	0	0.17661	-0.303455	0.0964851	0.85659	1.5708	0	0
10.22	0.168467	1.26739	1.4361	0.689508	0.527395	0.741424	1.18705	-0.138624	0.0233883	1.45032	-0.0716925	0	0	1.10482	-0.320938	-0.138374	1.3933	-0.0530873	0	0	-0.582128	0.207874	0.0878329	0.43024	-0.450318	0.140503	0.643695	1.1229	0	0	0.178576	-0.30387	0.0968517	0.858333	1.5708	0	0
10.23	0.165137	1.26295	1.4386	0.689146	0.527136	0.740081	1.19456	-0.138476	0.0254946	1.45308	-0.0704385	0	0	1.11219	-0.319569	-0.136203	1.39702	-0.0493932	0	0	-0.580534	0.208387	0.0904888	0.43148	-0.456768	0.157962	0.644313	1.08729	0	0	0.182225	-0.304612	0.10251	0.858424	1.5708	0	0
10.24	0.162135	1.25992	1.44139	0.688703	0.526958	0.738927	1.20077	-0.139288	0.0262761	1.4578	-0.070674	0	0	1.11775	-0.317822	-0.13451	1.40043	-0.0494026	0	0	-0.580911	0.20976	0.0904752	0.432922	-0.454261	0.150795	0.643158	1.10067	0	0	0.183023	-0.304273	0.100536	0.861146	1.5708	0	0
10.25	0.158389	1.25742	1.44497	0.688359	0.526827	0.737839	1.20702	-0.139913	0.0273788	1.46344	-0.0704847	0	0	1.12249	-0.316381	-0.133581	1.40369	-0.0485728	0	0	-0.58133	0.210613	0.0910046	0.433192	-0.452276	0.143487	0.64248	1.11199	0	0	0.184895	-0.304878	0.101479	0.863246	1.5708	0	0
10.26	0.154788	1.25488	1.44868	0.688018	0.52672	0.73674	1.21184	-0.140924	0.0295175	1.4636	-0.0712797	0	0	1.1273	-0.314872	-0.132662	1.40698	-0.047493	0	0	-0.581199	0.21141	0.0914388	0.432144	-0.45074	0.135572	0.642003	1.12161	0	0	0.186737	-0.305939	0.103271	0.865329	1.5708	0	0
10.27	0.151202	1.25135	1.45212	0.687661	0.526587	0.735616	1.21739	-0.142058	0.0314542	1.4655	-0.0708945	0	0	1.13304	-0.313417	-0.131659	1.40995	-0.0463627	0	0	-0.579769	0.211967	0.091834	0.429325	-0.449815	0.127238	0.641822	1.13111	0	0	0.188043	-0.306845	0.104227	0.867846	1.5708	0	0
10.28	0.14779	1.24755	1.45522	0.687382	0.526478	0.734559	1.22378	-0.142483	0.033067	1.4691	-0.0701998	0	0	1.13878	-0.312286	-0.130836	1.41249	-0.0453106	0	0	-0.577857	0.212008	0.0918107	0.424319	-0.44884	0.11627	0.643923	1.14113	0	0	0.188533	-0.307923	0.103755	0.87129	1.5708	0	0
10.29	0.141531	1.24098	1.4609	0.687278	0.526348	0.733274	1.23327	-0.142081	0.0361867	1.47032	-0.0706924	0	0	1.14751	-0.310862	-0.130138	1.41483	-0.0441456	0	0	-0.573005	0.211167	0.0918626	0.412309	-0.438296	0.06609	0.652082	1.20441	0	0	0.188359	-0.308623	0.102081	0.875082	1.5708	0	0
10.3	0.137532	1.23761	1.46398	0.687163	0.526251	0.7324	1.23891	-0.140961	0.0387244	1.47248	-0.0697752	0	0	1.15226	-0.310369	-0.130145	1.4169	-0.0433611	0	0	-0.57063	0.210276	0.0886818	0.409315	-0.437696	0.0623793	0.656926	1.20523	0	0	0.185758	-0.310177	0.0963644	0.880291	1.5708	0	0
10.31	0.13403	1.23549	1.46697	0.686941	0.526181	0.73171	1.24337	-0.140629	0.0406991	1.47691	-0.0681717	0	0	1.15542	-0.309556	-0.130411	1.41868	-0.0424879	0	0	-0.569639	0.209735	0.0849953	0.407756	-0.438092	0.0628072	0.661383	1.20307	0	0	0.183112	-0.311425	0.0896974	0.885724	1.5708	0	0
10.32	0.132786	1.23549	1.46798	0.686667	0.526193	0.73129	1.2447	-0.140544	0.0420669	1.47988	-0.0681528	0	0	1.15606	-0.309193	-0.130801	1.42031	-0.0424615	0	0	-0.570352	0.209782	0.0832665	0.406861	-0.442656	0.0721113	0.664927	1.18626	0	0	0.183804	-0.312223	0.087882	0.887673	1.5708	0	0
10.33	0.133266	1.23491	1.46857	0.68617	0.526266	0.730857	1.24601	-0.141848	0.0422577	1.48215	-0.0670454	0	0	1.15765	-0.307387	-0.129611	1.42179	-0.0415377	0	0	-0.570925	0.211464	0.0794614	0.407427	-0.443335	0.0710065	0.666836	1.19437	0	0	0.182363	-0.312002	0.0816759	0.890904	1.5708	0	0
10.34	0.135374	1.23478	1.46745	0.685689	0.526339	0.730579	1.2463	-0.142339	0.0425347	1.48322	-0.066245	0	0	1.15864	-0.306038	-0.128143	1.42299	-0.0405511	0	0	-0.572324	0.213487	0.0757343	0.409832	-0.444573	0.0734412	0.667363	1.19953	0	0	0.180794	-0.311712	0.0751666	0.893768	1.5708	0	0
10.35	0.136762	1.23413	1.4662	0.68526	0.526341	0.730355	1.24715	-0.142624	0.0423275	1.48392	-0.0658363	0	0	1.15983	-0.305293	-0.127304	1.42378	-0.0398569	0	0	-0.573318	0.214847	0.0729664	0.413076	-0.446356	0.0774646	0.667038	1.20181	0	0	0.180025	-0.311274	0.0699933	0.895611	1.5708	0	0
10.36	0.13801	1.23207	1.46436	0.68489	0.526287	0.730097	1.24903	-0.14248	0.0420992	1.48316	-0.0655799	0	0	1.16243	-0.305052	-0.126449	1.42436	-0.0390099	0	0	-0.573189	0.216082	0.069984	0.418244	-0.447926	0.0847427	0.665373	1.2031	0	0	0.178214	-0.30993	0.0625389	0.897672	1.5708	0	0
10.37	0.138119	1.22929	1.46295	0.68461	0.526208	0.729827	1.2518	-0.141278	0.043283	1.48167	-0.0659488	0	0	1.16556	-0.30531	-0.126318	1.42482	-0.0384188	0	0	-0.57219	0.216606	0.0678494	0.423761	-0.449399	0.0917988	0.662977	1.20285	0	0	0.177172	-0.308515	0.0570279	0.898511	1.5708	0	0
